<svg xmlns="http://www.w3.org/2000/svg" xml:space="preserve" width="207.475" height="207.475" version="1.0"><path d="M63.443 151.984H28.539V55.48h34.904c24.587 0 37.757 15.636 37.757 47.806 0 27.93-8.773 48.475-37.757 48.697zm15.158-46.687c0-19.444-1.987-34.614-22.62-34.614h-4.62v65.653h8.129c12.07 0 19.111-9.816 19.111-31.039m69.584 46.687h-36.88V55.48h38.647c18.222 0 28.095 7.607 28.095 25.696 0 9.384-7.685 16.08-16.024 20.323 11.638 3.342 19.533 10.506 19.533 22.553 0 19.668-16.246 27.93-33.37 27.93zm-14.27-58.303h7.908c7.462 0 12.948-3.34 12.948-11.615 0-9.16-7.03-11.615-14.493-11.615h-6.363zm23.488 29.93c0-9.829-6.141-12.061-15.136-12.061h-8.352v24.786h8.129c8.129 0 15.359-2.675 15.359-12.726m29.428-93.582H20.844C9.439 30.028 0 39.178 0 51.017v105.209c0 11.837 9.44 21.22 20.844 21.22H186.83c11.194 0 20.644-9.383 20.644-21.22V51.016c0-11.838-9.45-20.988-20.644-20.988zm5.486 126.198c0 3.353-2.2 6.042-5.486 6.042H20.844c-3.287 0-5.697-2.689-5.697-6.042V51.016c0-3.354 2.41-6.03 5.697-6.03H186.83c3.287 0 5.486 2.676 5.486 6.03v105.21" style="fill:red;fill-opacity:1;fill-rule:nonzero;stroke:none"/></svg>